<svg width="159" height="129" viewBox="0 0 159 129" fill="none" xmlns="http://www.w3.org/2000/svg">
<g clip-path="url(#clip0_72_81)">
<path d="M111.387 0H36.2884C37.4208 19.7661 21.001 32.12 0 35.0242C5.04435 79.498 32.3765 112.442 79.7316 128.957C117.255 115.736 147.727 90.4214 156.993 54.877C165.434 22.3236 146.852 0 111.387 0Z" fill="white"/>
<path d="M111.387 0H36.2884C37.4208 19.7661 21.001 32.12 0 35.0242C5.04435 79.498 32.3765 112.442 79.7316 128.957C117.255 115.736 147.727 90.4214 156.993 54.877C165.434 22.3236 146.852 0 111.387 0ZM151.382 53.8367C143.404 85.2631 116.432 110.448 79.7316 123.755C36.6488 108.194 11.7358 77.3306 6.33118 38.7954C25.6335 34.5907 40.6636 22.4103 42.0019 4.7248H111.696C145.771 4.55141 158.485 27.1784 151.382 53.8367Z" fill="#0095DA"/>
<path d="M75.5625 76.8101H83.8496L79.9892 61.0752L75.5625 76.8101Z" fill="#0095DA"/>
<path d="M111.645 9.05922H46.4801C43.4432 25.0975 29.8543 36.6711 11.9932 41.8294C18.1184 77.3304 41.8475 104.899 79.8345 119.073C113.241 106.286 138.617 83.529 146.492 52.8828C152.617 29.1288 142.477 8.92918 111.645 9.05922ZM23.0084 45.3838H63.2088L82.2538 27.4816L74.121 25.0108C73.246 24.7074 73.2975 23.9705 74.121 23.9705H83.0259L85.8054 16.1681C85.9598 15.6479 86.7834 15.778 86.7834 16.1681L87.6584 23.9705H96.2029C96.8206 23.9705 97.078 24.6207 95.9456 25.0108L86.8863 27.6116L72.6798 45.3838H77.3638C76.9006 46.8143 76.3858 48.5481 75.7682 50.5421L68.3046 50.9755L67.481 52.0159C65.3706 54.1832 60.1719 59.6449 57.0835 60.2518C55.1275 60.6419 53.1715 58.9947 53.9951 56.8707C54.7157 54.8334 56.6717 53.1429 57.8041 51.3223L22.854 47.5945C21.2583 47.5945 21.4127 45.3838 23.0084 45.3838ZM123.587 70.4383C120.91 70.4383 120.807 71.3485 120.807 73.6026V84.0925C120.807 86.4332 121.013 87.2134 123.587 87.2134V89.2941H112.726V87.2134C115.196 87.2134 115.557 86.4766 115.557 84.0925V75.9433L106.755 84.9594V85.3495C106.755 86.6066 107.578 87.1268 109.586 87.1268V89.2074H82.5626V87.1268C84.5186 87.1268 85.7539 86.9534 85.7539 85.3929C85.7539 84.4393 85.2392 81.8818 84.4156 79.1076H74.6358L73.4004 83.3122C72.5254 86.0864 72.7827 87.1268 76.3344 87.1268V89.2074H53.8407V87.1268C56.5173 87.1268 56.7747 86.3899 56.7747 83.9624V74.2528L49.9287 88.5572L42.9799 73.8193V84.2225C42.9799 86.2598 43.2373 87.1268 45.9138 87.1268V89.2074H37.6267V87.1268C40.4577 87.1268 40.5607 85.6963 40.5607 83.7024V73.5592C40.5607 71.782 40.5607 70.3949 37.8326 70.3949V68.3143H46.7374L51.5244 79.1076L56.3114 68.3143H64.8559V70.3949C62.1793 70.3949 62.1278 71.3052 62.1278 73.5592V84.0491C62.1278 86.0864 62.3852 86.6499 63.1058 86.91C64.7015 87.4302 67.8413 87.3001 68.7164 85.783C69.5399 84.3092 70.2091 82.7487 70.6724 81.1449L82.2023 42.9997L92.5998 80.4514C93.7322 84.4826 94.4014 85.5229 95.4308 86.3465C96.5118 87.0834 99.8575 87.6903 101.144 86.5632C101.402 86.3465 101.608 85.8697 101.608 84.0925V73.6026C101.608 71.2185 101.402 70.4383 98.7766 70.4383V68.3576H109.689V70.4383C107.012 70.4383 106.858 71.3919 106.858 73.6026V81.8385L115.66 72.779V72.3889C115.66 71.4352 114.939 70.4383 112.829 70.4383V68.3576H123.69V70.4383H123.587ZM122.506 47.5945L88.0187 49.7618L86.7834 45.3405H122.506C124.359 45.3838 124.462 47.5512 122.506 47.5945Z" fill="#0095DA"/>
</g>
<defs>
<clipPath id="clip0_72_81">
<rect width="159" height="129" fill="white"/>
</clipPath>
</defs>
</svg>
